<svg xmlns="http://www.w3.org/2000/svg" width="200" height="200" viewBox="-15 -15 200 200">
    <defs>
        <style>.cls-11,.cls-12,.cls-13,.cls-6,.cls-7,.cls-8{fill:none}.cls-3{fill:#0069b4}.cls-4{fill:#fff}.cls-11,.cls-12,.cls-13,.cls-6,.cls-7,.cls-8{stroke:#0069b4}.cls-7,.cls-8{stroke-width:.87px}.cls-11,.cls-12,.cls-13,.cls-6,.cls-7,.cls-8{stroke-miterlimit:2.61}.cls-6{stroke-width:.38px}.cls-11,.cls-8{stroke-linecap:round}.cls-11,.cls-12{stroke-width:.72px}.cls-13{stroke-width:.53px}.cls-14{fill:#1d1d1b}</style>

        <filter id="dropShadow" x="0" y="0">
            <feGaussianBlur in="SourceAlpha" stdDeviation="1.2"/> <!-- stdDeviation is how much to blur -->
            <feOffset dx="0" dy="4" result="offsetblur"/> <!-- how much to offset -->
            <feComponentTransfer>
                <feFuncA type="linear" slope="0.25"/> <!-- slope is the opacity of the shadow -->
            </feComponentTransfer>
            <feMerge>
                <feMergeNode/> <!-- this contains the offset blurred image -->
                <feMergeNode in="SourceGraphic"/> <!-- this contains the element that the filter is applied to -->
            </feMerge>
        </filter>
    </defs>
    <g id="logo">
        <circle cx="85" cy="85" r="95" fill="#fff"/>
        <path d="M154.07 85.13a69 69 0 11-69-68.89 69 69 0 0169 68.89" class="cls-3" transform="translate(-.03 -.02)"/>
        <path d="M127.78 79.72c0-24.6 3.54-39.66 3.54-39.66s-23.62-9-46.1-9c-22.47 0-46.09 9-46.09 9s3.53 15.06 3.53 39.66-3.29 39.14-3.29 39.14A169.46 169.46 0 0173.42 113a7.62 7.62 0 00-.46.9 169.93 169.93 0 00-33.07 5.79S42.23 122 47 127s12.7 10.46 17.37 13a91.77 91.77 0 0010.3 4.57c1.09.42 6 2.36 7.85 3.2a7.35 7.35 0 012.61 1.84h.14a7.34 7.34 0 012.62-1.84c1.83-.84 6.75-2.78 7.84-3.2A91.77 91.77 0 00106 140c4.68-2.49 12.61-7.89 17.38-12.93s7.1-7.38 7.1-7.38a169.74 169.74 0 00-33.07-5.79c0-.21-.53-.71-.66-.91a172.87 172.87 0 0134.29 5.92s-3.29-14.53-3.29-39.14" class="cls-4" transform="translate(-.03 -.02)"/>
        <path d="M97.82 114.73c0 3.39-5.67 6.14-12.66 6.14s-12.67-2.75-12.67-6.14 5.67-6.13 12.67-6.13 12.66 2.74 12.66 6.13" class="cls-4" transform="translate(-.03 -.02)"/>
        <path d="M85.09 48.74c1.58 0 2.46.17 3.29.21s1.27.39 2.1.47c1.62.16 1.55-.63 4.13-.56a13 13 0 012.81.25c-.16.87-1.62 1.4-1.81 2.3-.14.69 1.12 1.24 1.5 2.21a20.72 20.72 0 011.06 5.86 8.39 8.39 0 00.77 3.52c.59 1 1.57 1.38 2.62 3.72 3.47 7.72.28 16.61-2.62 25.41-2.66 8.06-5 14.76-5.74 17.36-.36 1.22 1 2.51 2.65 3.77 1.12 1.74.58 2.6.58 2.6s-1.58-2.17-3.57-2-4.17 2.91-4.17 2.91c-1.78-1.55 1.42-4.44 1.42-4.44s-2.61-.54-3.37 1.26c-.35.81-.77-1.36.43-2.23a1.61 1.61 0 01.32-.21 2.77 2.77 0 01-2.4.49 2.18 2.18 0 01-2.15-.49 1.61 1.61 0 01.32.21c1.2.87.78 3 .43 2.23-.76-1.8-3.39-1.31-3.37-1.26s3.2 2.89 1.42 4.44c0 0-2.16-2.76-4.17-2.91s-3.57 2-3.57 2-.54-.86.58-2.6a8 8 0 002.56-2.69 1.62 1.62 0 00.09-1.08c-.75-2.6-3.08-9.3-5.74-17.36-2.9-8.8-6.1-17.69-2.63-25.41 1.06-2.34 2-2.69 2.63-3.72a8.39 8.39 0 00.77-3.56 20.72 20.72 0 011.06-5.86c.38-1 1.64-1.52 1.5-2.21-.19-.9-1.65-1.43-1.81-2.3a13 13 0 012.81-.25c2.58-.07 2.51.72 4.13.56.83-.08 1.26-.42 2.1-.47s1.47-.21 3-.21" class="cls-4" transform="translate(-.03 -.02)"/>
        <path fill="none" stroke="#0069b4" stroke-linejoin="round" stroke-width=".87" d="M85.06 48.72c1.58 0 2.46.17 3.29.21s1.27.39 2.1.47c1.62.16 1.55-.63 4.13-.56a13 13 0 012.81.25c-.16.87-1.62 1.4-1.81 2.3-.14.69 1.12 1.24 1.5 2.21a20.72 20.72 0 011.06 5.86 8.39 8.39 0 00.77 3.52c.59 1 1.57 1.38 2.62 3.72 3.47 7.72.28 16.61-2.62 25.41-2.66 8.06-5 14.76-5.74 17.36-.36 1.22 1 2.51 2.65 3.77 1.12 1.74.58 2.6.58 2.6s-1.58-2.17-3.57-2-4.17 2.91-4.17 2.91c-1.78-1.55 1.42-4.44 1.42-4.44s-2.61-.54-3.37 1.26c-.35.81-.77-1.36.43-2.23a1.61 1.61 0 01.32-.21 2.77 2.77 0 01-2.4.49 2.18 2.18 0 01-2.15-.49 1.61 1.61 0 01.32.21c1.2.87.78 3 .43 2.23-.76-1.8-3.39-1.31-3.37-1.26s3.2 2.89 1.42 4.44c0 0-2.16-2.76-4.17-2.91s-3.57 2-3.57 2-.54-.86.58-2.6a8 8 0 002.56-2.69 1.62 1.62 0 00.09-1.08c-.75-2.6-3.08-9.3-5.74-17.36-2.9-8.8-6.1-17.69-2.63-25.41 1.06-2.34 2-2.69 2.63-3.72a8.39 8.39 0 00.77-3.56 20.72 20.72 0 011.06-5.86c.38-1 1.64-1.52 1.5-2.21-.19-.9-1.65-1.43-1.81-2.3a13 13 0 012.81-.25c2.58-.07 2.51.72 4.13.56.83-.08 1.26-.42 2.1-.47s1.47-.17 3.04-.17z"/>
        <path d="M89.85 56a1.53 1.53 0 111.52 1.52A1.52 1.52 0 0189.85 56" class="cls-3" transform="translate(-.03 -.02)"/>
        <path d="M89.85 56a1.53 1.53 0 111.52 1.52A1.52 1.52 0 0189.85 56z" class="cls-6" transform="translate(-.03 -.02)"/>
        <path d="M88.12 56.09c0-.85.64-1.33 1.34-1.83a5 5 0 011.75-.89 2.73 2.73 0 013.1 2.72 3.12 3.12 0 01-6.19 0" class="cls-7" transform="translate(-.03 -.02)"/>
        <path d="M85.29 61.55c.43-.72.82-.81 1-1.44.69-2.28.61-3.52 2.11-5 1.78-1.78 3.57-2 6.12-2" class="cls-8" transform="translate(-.03 -.02)"/>
        <path fill="none" stroke="#0069b4" stroke-linecap="round" stroke-linejoin="round" stroke-width=".87" d="M77.2 110.52c1.42-2.11.22-5.82-.69-9.24-2.54-9.42-6.24-18.58-6.45-25.85-.11-3.88.1-5.53 1.28-10.82a6.66 6.66 0 00.63-2.88m21.26 48.91c-1.54-2.1-.31-5.88.61-9.36 2.51-9.42 6.24-18.58 6.45-25.85.11-3.88-.1-5.53-1.28-10.82a6.66 6.66 0 01-.65-2.88"/>
        <path fill="none" stroke="#0069b4" stroke-linecap="round" stroke-miterlimit="2" stroke-width=".87" d="M85.07 125.76h.26m-.26 16.22c-1-.25-9.29-3.88-7.42-8 .71-1.56 4.72-1.9 3.73-3.29-.56-.78-3.22 1.74-4.77 1.48s-2.19-2.06-2.7-3.76c-.68-2.24-1.1-4.88-.66-6.4.21-.75 3.67-1.93 6.21-2 1.91 0 4-.22 4.8 1 .52.76.27 2 .37 3.31 0 .57-.16 1.46.44 1.41m.26 16.25h-.26m.26-16.24c.59 0 .39-.84.43-1.41.1-1.3-.15-2.55.37-3.31.83-1.22 2.89-1 4.8-1 2.54 0 6 1.21 6.22 2 .43 1.52 0 4.16-.66 6.4-.52 1.7-1.22 3.52-2.7 3.76s-4.21-2.26-4.78-1.48c-1 1.39 3 1.73 3.73 3.29 1.88 4.15-6.39 7.78-7.41 8"/>
        <path d="M85.2 128.23c1.54.1 4.72-2.71 5.22-2 .62.91-1.55 1.47-3.12 3-1.2 1.15-1.5 1.19-1.6 5.84 0 .37.18 1.65-.5 1.65s-.49-1.28-.5-1.65c-.11-4.65-.4-4.69-1.61-5.84-1.57-1.5-3.74-2.06-3.11-3 .5-.71 3.68 2.1 5.22 2" class="cls-11" transform="translate(-.03 -.02)"/>
        <path d="M84.91 129.66c0-.27.13-.49.29-.49s.29.22.29.49-.13.5-.29.5-.29-.23-.29-.5" class="cls-3" transform="translate(-.03 -.02)"/>
        <path d="M84.91 129.66c0-.27.13-.49.29-.49s.29.22.29.49-.13.5-.29.5-.29-.23-.29-.5z" class="cls-6" transform="translate(-.03 -.02)"/>
        <path d="M84.62 72.85c0 .72 0 1.13.07 1.86s.07 1.18.14 1.93m2.7 10.62c0 .73 0 1.14-.07 1.86s-.07 1.18-.13 1.93m1.1 5.86A7.14 7.14 0 0188 99a7.53 7.53 0 01-.67 1.47m5.14-18.7A11.27 11.27 0 0192 84a10.4 10.4 0 01-.69 1.73m3.37-13.11a4.32 4.32 0 01-.79 3.4M79 93a4.23 4.23 0 00.14 2 4.12 4.12 0 00.72 1.47M77.67 71a5.68 5.68 0 000 1.84 5.27 5.27 0 00.58 1.84m.65 7a6.18 6.18 0 00.58 3.67" class="cls-11" transform="translate(-.03 -.02)"/>
        <path d="M77.53 56a1.53 1.53 0 111.53 1.52A1.53 1.53 0 0177.53 56" class="cls-3" transform="translate(-.03 -.02)"/>
        <path d="M77.53 56a1.53 1.53 0 111.53 1.52A1.53 1.53 0 0177.53 56z" class="cls-6" transform="translate(-.03 -.02)"/>
        <path d="M82.31 56.09c0-.85-.64-1.33-1.34-1.83a5 5 0 00-1.75-.89 2.73 2.73 0 00-3.1 2.72 3.12 3.12 0 006.19 0" class="cls-7" transform="translate(-.03 -.02)"/>
        <path d="M85.14 61.55c-.43-.72-.82-.81-1-1.44-.68-2.28-.6-3.52-2.11-5-1.77-1.78-3.56-2-6.11-2" class="cls-8" transform="translate(-.03 -.02)"/>
        <path d="M51.08 53.59h2.43v62.33l-2.43.49V53.59z" class="cls-4"/>
        <path d="M51.08 53.59h2.43v62.33l-2.43.49V53.59z" class="cls-7"/>
        <path d="M64.47 57.17h-8c-2.91.11-8 2.62-9 6.67-1 3.9 1.61 7.7 3.78 9.87 1.58 1.58 3.25 2.12 3.66 3.64.61 2.21-1.51 4.49-3.18 7.06s-3.32 4.74-3.26 7.76c.07 3.27 4.45 5.81 5.67 8.63s-1.54 4.69-3.79 6.62a10.46 10.46 0 00-2.84 4.09 4.62 4.62 0 00-.17 2c.33 1.44 3.1-2.68 5-4.56 2.12-2.06 4.38-4.35 4.41-6.74.07-4.52-4.94-6.47-5.63-10.13-1-5.07 5.49-8.14 6.09-13.47.64-5.52-7.88-8.1-7.5-13.38.17-2.42 3.64-5.38 7.23-5.54 1.45-.06 2.1 1.25 3 1.23a7.84 7.84 0 003.28-1.11c.51-.24 1.09-.5 1.78-.76s1.29-.62 1.15-1.28-1.35-.57-1.72-.59" class="cls-4" transform="translate(-.03 -.02)"/>
        <path d="M64.47 57.17h-8c-2.91.11-8 2.62-9 6.67-1 3.9 1.61 7.7 3.78 9.87 1.58 1.58 3.25 2.12 3.66 3.64.61 2.21-1.51 4.49-3.18 7.06s-3.32 4.74-3.26 7.76c.07 3.27 4.45 5.81 5.67 8.63s-1.54 4.69-3.79 6.62a10.46 10.46 0 00-2.84 4.09 4.62 4.62 0 00-.17 2c.33 1.44 3.1-2.68 5-4.56 2.12-2.06 4.38-4.35 4.41-6.74.07-4.52-4.94-6.47-5.63-10.13-1-5.07 5.49-8.14 6.09-13.47.64-5.52-7.88-8.1-7.5-13.38.17-2.42 3.64-5.38 7.23-5.54 1.45-.06 2.1 1.25 3 1.23a7.84 7.84 0 003.28-1.11c.51-.24 1.09-.5 1.78-.76s1.29-.62 1.15-1.28-1.31-.58-1.68-.6z" class="cls-12" transform="translate(-.03 -.02)"/>
        <path d="M61.5 57.17a1.46 1.46 0 01-2.8 0z" class="cls-3" transform="translate(-.03 -.02)"/>
        <path d="M60.07 58.34H60.22l.08-.01.07-.01.08-.02.07-.01.07-.02.07-.02.07-.03.06-.02.07-.03.06-.03.06-.04.06-.03.05-.04.06-.04.05-.04.05-.05.04-.05.05-.05.04-.05.03-.05.04-.05.03-.06.03-.06.03-.05.02-.07.02-.06.01-.06.01-.06.01-.07h-.28v.03l-.01.05-.01.04-.01.05-.02.05-.02.04-.02.04-.02.05-.03.04-.03.04-.03.04-.04.03-.03.04-.04.04-.04.03-.05.04-.04.03-.05.03-.05.03-.05.02-.06.03-.05.02-.06.02-.06.02-.06.01-.06.02-.06.01-.06.01h-.07l-.06.01h-.07v.27z" class="cls-3"/>
        <path d="M58.53 57.16l.01.07.01.06.01.06.02.06.02.07.03.05.03.06.03.06.03.05.04.05.04.05.04.05.05.05.05.05.05.04.06.04.05.04.06.03.06.04.06.03.07.03.06.02.07.03.07.02.07.02.07.01.08.02.07.01.07.01h.16v-.27H60l-.06-.01h-.07l-.06-.01-.06-.01-.07-.02-.05-.01-.06-.02-.06-.02-.06-.02-.05-.03-.05-.02-.05-.03-.05-.03-.04-.03-.05-.04-.04-.03-.04-.04-.03-.03-.04-.04-.03-.04-.03-.04-.03-.04-.02-.05-.02-.04-.02-.04-.02-.05-.01-.04-.01-.05-.01-.05v-.03h-.28z" class="cls-3"/>
        <path d="M66.76 59.72h-7.09" class="cls-13"/>
        <path d="M55.39 51.49a3 3 0 11-3-3 3 3 0 013 3" class="cls-4" transform="translate(-.03 -.02)"/>
        <ellipse cx="52.34" cy="51.47" class="cls-7" rx="3.03" ry="3.02"/>
        <path d="M51.08 68.34h2.43v6.82l-2.43.06v-6.88z" class="cls-4"/>
        <path d="M51.08 68.34h2.43v6.82l-2.43.06v-6.88z" class="cls-7"/>
        <path d="M51.52 66.89h1.55v9.33l-1.55.07v-9.4zM51.08 91.77h2.43v9.05l-2.43.07v-9.12z" class="cls-4"/>
        <path d="M51.08 91.77h2.43v9.05l-2.43.07v-9.12z" class="cls-7"/>
        <path d="M51.52 91.16h1.55v11.25l-1.55.09V91.16zM119.17 53.59h-2.43v62.33l2.43.49V53.59z" class="cls-4"/>
        <path d="M119.17 53.59h-2.43v62.33l2.43.49V53.59z" class="cls-7"/>
        <path d="M105.83 57.17h8c2.91.11 8 2.62 9 6.67 1 3.9-1.61 7.7-3.79 9.87-1.58 1.58-3.24 2.12-3.66 3.64-.61 2.21 1.52 4.49 3.18 7.06s3.33 4.74 3.26 7.76c-.06 3.27-4.45 5.81-5.66 8.63s1.54 4.69 3.78 6.62a10.59 10.59 0 012.85 4.09 4.77 4.77 0 01.16 2c-.33 1.44-3.09-2.68-5-4.56-2.12-2.06-4.38-4.35-4.41-6.74-.07-4.52 5-6.47 5.64-10.13 1-5.07-5.49-8.14-6.1-13.47-.63-5.52 7.89-8.1 7.51-13.38-.17-2.42-3.64-5.38-7.24-5.54-1.44-.06-2.1 1.25-3 1.23a7.75 7.75 0 01-3.28-1.11c-.51-.24-1.09-.5-1.79-.76s-1.29-.62-1.15-1.28 1.36-.57 1.72-.59" class="cls-4" transform="translate(-.03 -.02)"/>
        <path d="M105.83 57.17h8c2.91.11 8 2.62 9 6.67 1 3.9-1.61 7.7-3.79 9.87-1.58 1.58-3.24 2.12-3.66 3.64-.61 2.21 1.52 4.49 3.18 7.06s3.33 4.74 3.26 7.76c-.06 3.27-4.45 5.81-5.66 8.63s1.54 4.69 3.78 6.62a10.59 10.59 0 012.85 4.09 4.77 4.77 0 01.16 2c-.33 1.44-3.09-2.68-5-4.56-2.12-2.06-4.38-4.35-4.41-6.74-.07-4.52 5-6.47 5.64-10.13 1-5.07-5.49-8.14-6.1-13.47-.63-5.52 7.89-8.1 7.51-13.38-.17-2.42-3.64-5.38-7.24-5.54-1.44-.06-2.1 1.25-3 1.23a7.75 7.75 0 01-3.28-1.11c-.51-.24-1.09-.5-1.79-.76s-1.29-.62-1.15-1.28 1.34-.58 1.7-.6z" class="cls-12" transform="translate(-.03 -.02)"/>
        <path d="M108.81 57.17a1.46 1.46 0 002.8 0z" class="cls-3" transform="translate(-.03 -.02)"/>
        <path d="M110.18 58.34H110.03l-.08-.01-.07-.01-.08-.02-.07-.01-.07-.02-.07-.02-.07-.03-.06-.02-.07-.03-.06-.03-.06-.04-.06-.03-.05-.04-.06-.04-.05-.04-.05-.05-.04-.05-.05-.05-.04-.05-.04-.05-.03-.05-.03-.06-.03-.06-.03-.05-.02-.07-.02-.06-.01-.06-.01-.06-.01-.07h.28v.03l.01.05.01.04.01.05.02.05.02.04.02.04.02.05.03.04.03.04.03.04.04.03.03.04.04.04.04.03.05.04.04.03.05.03.05.03.05.02.05.03.06.02.06.02.06.02.06.01.06.02.06.01.06.01h.07l.06.01h.07v.27z" class="cls-3"/>
        <path d="M111.72 57.16l-.01.07-.01.06-.01.06-.02.06-.02.07-.03.05-.03.06-.03.06-.03.05-.04.05-.04.05-.05.05-.04.05-.05.05-.06.04-.05.04-.05.04-.06.03-.06.04-.06.03-.07.03-.06.02-.07.03-.07.02-.07.02-.07.01-.08.02-.07.01-.08.01H110.18v-.27h.07l.06-.01h.07l.06-.01.06-.01.06-.02.06-.01.06-.02.06-.02.05-.02.06-.03.05-.02.05-.03.05-.03.04-.03.05-.04.04-.03.04-.04.03-.03.04-.04.03-.04.03-.04.03-.04.02-.05.02-.04.02-.04.02-.05.01-.04.01-.05.01-.05v-.03h.28z" class="cls-3"/>
        <path d="M103.49 59.72h7.09" class="cls-13"/>
        <path d="M114.91 51.49a3 3 0 103-3 3 3 0 00-3 3" class="cls-4" transform="translate(-.03 -.02)"/>
        <ellipse cx="117.91" cy="51.47" class="cls-7" rx="3.03" ry="3.02"/>
        <path d="M119.17 68.34h-2.43v6.82l2.43.06v-6.88z" class="cls-4"/>
        <path d="M119.17 68.34h-2.43v6.82l2.43.06v-6.88z" class="cls-7"/>
        <path d="M118.73 66.89h-1.56v9.33l1.56.07v-9.4zM119.17 91.77h-2.43v9.05l2.43.07v-9.12z" class="cls-4"/>
        <path d="M119.17 91.77h-2.43v9.05l2.43.07v-9.12z" class="cls-7"/>
        <path d="M118.73 91.16h-1.56v11.25l1.56.09V91.16z" class="cls-4"/>
        <path d="M32.68 25.76a1.54 1.54 0 01-.29-.47 1 1 0 01-.06-.41.8.8 0 01.14-.36 1.54 1.54 0 01.27-.31 1.79 1.79 0 01.34-.22 1 1 0 01.38-.08 1.07 1.07 0 01.4.12 1.74 1.74 0 01.7.82 1 1 0 01.06.41.92.92 0 01-.13.36 1.14 1.14 0 01-.27.31 1.46 1.46 0 01-.35.22.84.84 0 01-.38.08 1.07 1.07 0 01-.4-.12 1.78 1.78 0 01-.41-.35M46.57 23a5.24 5.24 0 01-1.31.61 3.15 3.15 0 01-1.14.13 1.93 1.93 0 01-.92-.3 2.07 2.07 0 01-.68-.7 1.09 1.09 0 01-.16-.86 1.22 1.22 0 01.6-.73 4.07 4.07 0 00.65.77 2.54 2.54 0 00.79.51 1.93 1.93 0 00.89.15 2.18 2.18 0 001-.34 2.6 2.6 0 001.21-1.37 2 2 0 00-.27-1.66 2.36 2.36 0 00-.53-.62 2 2 0 00-.71-.33 4.09 4.09 0 00-1-.07q-.57 0-1.35.15a9.34 9.34 0 01-1.51.13 4.36 4.36 0 01-1.24-.19 3.13 3.13 0 01-1-.54 4 4 0 01-.8-1 2.9 2.9 0 01-.44-1.24 2.73 2.73 0 01.16-1.2 3.43 3.43 0 01.68-1.11 5.3 5.3 0 011.13-.93 5.44 5.44 0 011.22-.56 3.41 3.41 0 011-.15 2 2 0 01.83.19 1.35 1.35 0 01.54.49 1 1 0 01.12.88 1.53 1.53 0 01-.67.73 3.59 3.59 0 00-.48-.61 1.91 1.91 0 00-.62-.41 1.69 1.69 0 00-.75-.11 1.94 1.94 0 00-.85.3 2.52 2.52 0 00-.67.56A1.7 1.7 0 0040 15a2.07 2.07 0 00.29.74 2.55 2.55 0 00.57.67 1.79 1.79 0 00.73.36 3.32 3.32 0 001 .07 9.28 9.28 0 001.34-.15 11.23 11.23 0 011.45-.14 4.24 4.24 0 011.21.13 3 3 0 011 .46 3.42 3.42 0 011.27 2.23 2.89 2.89 0 01-.16 1.33 3.68 3.68 0 01-.8 1.3 5.61 5.61 0 01-1.33 1M56.32 15.73a1.53 1.53 0 00.35.54.77.77 0 00.41.21 1 1 0 00.46 0 3.39 3.39 0 00.51-.17l.35-.15.27.64-4.77 2-.27-.64L54 18a3.45 3.45 0 00.47-.24 1.27 1.27 0 00.34-.31.84.84 0 00.14-.43 1.4 1.4 0 00-.13-.58L51.17 8l-1.47.63a1.47 1.47 0 00-.52.34 1.13 1.13 0 00-.26.43 1.34 1.34 0 00-.05.49 3.33 3.33 0 00.11.53l.2.69-.8.34-1.06-2.75L56 5l1.21 2.64-.83.36-.38-.62a2.24 2.24 0 00-.29-.38 1.05 1.05 0 00-.39-.31 1 1 0 00-.49-.12 1.59 1.59 0 00-.62.15l-1.49.63zM62.93 15.31l-.19-.67.21-.06a3.25 3.25 0 00.5-.18 1.21 1.21 0 00.38-.28.84.84 0 00.18-.43 1.34 1.34 0 00-.07-.63l-2.18-7.8a1.65 1.65 0 00-.27-.58.84.84 0 00-.38-.27 1.15 1.15 0 00-.46 0 3.76 3.76 0 00-.53.1l-.2.06-.19-.67 4.68-1.31.19.68-.22.06a4.24 4.24 0 00-.5.18 1 1 0 00-.37.28.9.9 0 00-.19.42 1.73 1.73 0 00.07.64l2.18 7.8a1.51 1.51 0 00.27.57 1 1 0 00.38.27 1.2 1.2 0 00.47.05 3.46 3.46 0 00.52-.11l.21-.06.19.68zM71.76 1.94l.7 4.76 4-.58.12.8-4 .58.51 3.5a1.68 1.68 0 00.2.61.86.86 0 00.35.31 1.07 1.07 0 00.45.11 3.23 3.23 0 00.53 0l.55-.08.1.69-5.13.75-.1-.69h.21a3.82 3.82 0 00.51-.11 1.22 1.22 0 00.41-.21.83.83 0 00.24-.38 1.29 1.29 0 000-.6l-1.2-8.16A1.52 1.52 0 0070 2.6a1 1 0 00-.34-.3 1.14 1.14 0 00-.46-.09 3.12 3.12 0 00-.52 0h-.21l-.1-.69L76.72.37l.51 2.87-.86.12-.18-.69a2 2 0 00-.19-.51 1.28 1.28 0 00-.34-.39 1.43 1.43 0 00-.5-.22 1.66 1.66 0 00-.67 0zM86.55 10.05a1.57 1.57 0 00.1.63.91.91 0 00.29.37 1.16 1.16 0 00.44.17 4.39 4.39 0 00.53 0h.38V12H83.1v-.7h.38a4.45 4.45 0 00.53 0 1.52 1.52 0 00.44-.15.91.91 0 00.3-.34 1.38 1.38 0 00.11-.59l.07-9.34h-1.6a1.55 1.55 0 00-.61.11 1 1 0 00-.41.29 1.18 1.18 0 00-.24.44 4 4 0 00-.12.52l-.09.72H81L81.1 0l9.39.07.06 2.93h-.86l-.08-.71a2.93 2.93 0 00-.11-.53 1.42 1.42 0 00-.23-.44 1 1 0 00-.41-.32 1.4 1.4 0 00-.62-.1h-1.62zM98.09 13.26a6.94 6.94 0 01-1.7-.52 3.39 3.39 0 01-1.19-.88 3 3 0 01-.61-1.29 4.72 4.72 0 010-1.75l1.15-6.36a1.32 1.32 0 000-.6.84.84 0 00-.23-.4 1.05 1.05 0 00-.4-.23 3.8 3.8 0 00-.51-.13h-.21l.13-.68 4.77.85-.12.69h-.22a3.17 3.17 0 00-.53 0 1.06 1.06 0 00-.45.09.86.86 0 00-.36.3 1.54 1.54 0 00-.22.6l-1.13 6.26a3.29 3.29 0 000 1.25 2.11 2.11 0 00.42.92 2.49 2.49 0 00.78.61 4.27 4.27 0 001.08.34 3.43 3.43 0 001.27 0 2.43 2.43 0 001-.38 2.06 2.06 0 00.65-.72 3 3 0 00.35-1l1.18-6.52a1.32 1.32 0 000-.6.77.77 0 00-.23-.39 1.05 1.05 0 00-.4-.23 2.72 2.72 0 00-.51-.13h-.21l.12-.69 4.13.74-.13.69h-.21A3.38 3.38 0 00105 3a1 1 0 00-.46.08.86.86 0 00-.35.31 1.4 1.4 0 00-.22.59l-1.17 6.5a4.15 4.15 0 01-.53 1.42 3 3 0 01-1 1 3.46 3.46 0 01-1.38.46 5.72 5.72 0 01-1.78-.07M114.14 17.87l-2.41-11.2-2.73 7.19a1.61 1.61 0 00-.12.63.8.8 0 00.15.44 1 1 0 00.34.31 3.54 3.54 0 00.48.23l.21.08-.25.65-3.91-1.49.25-.66.2.08a2.46 2.46 0 00.51.15 1.24 1.24 0 00.47 0 .82.82 0 00.4-.23 1.56 1.56 0 00.32-.55L111 5.87a1.33 1.33 0 00.1-.59.76.76 0 00-.15-.42 1.06 1.06 0 00-.35-.31 4.3 4.3 0 00-.48-.22l-.2-.08.26-.65L113 4.69l2.28 10.73 2.64-6.89a1.38 1.38 0 00.11-.59.9.9 0 00-.16-.43 1 1 0 00-.35-.3A2.92 2.92 0 00117 7l-.21-.08.25-.65L121 7.75l-.25.65-.2-.07a2.65 2.65 0 00-.51-.15.94.94 0 00-.47 0 .82.82 0 00-.4.23 1.48 1.48 0 00-.32.55l-3.58 9.33zM124 23.3a6.61 6.61 0 01-1.93-1.69 4.86 4.86 0 01-.87-2 5.38 5.38 0 01.11-2.21 8.6 8.6 0 011-2.31 7.65 7.65 0 011.61-1.91 5.33 5.33 0 012-1.07 5.11 5.11 0 012.18-.11 6.79 6.79 0 012.4.95 8.13 8.13 0 011.3 1 4.11 4.11 0 01.77.93 2 2 0 01.27.87 1.31 1.31 0 01-.19.75.93.93 0 01-.36.35 1.23 1.23 0 01-.47.14 1.72 1.72 0 01-.54-.06 2.3 2.3 0 01-.56-.25 2.57 2.57 0 00.31-.72 1.87 1.87 0 000-.78 2 2 0 00-.32-.78 2.34 2.34 0 00-.78-.7 4.4 4.4 0 00-1.72-.66 3.13 3.13 0 00-1.57.23 4.34 4.34 0 00-1.44 1 10.73 10.73 0 00-1.35 1.78 10.37 10.37 0 00-1 2 4.16 4.16 0 00-.24 1.76 3.11 3.11 0 00.57 1.53 4.83 4.83 0 001.46 1.3c.28.17.55.32.82.45a5.36 5.36 0 00.77.29l1.41-2.29a1.35 1.35 0 00.21-.56.86.86 0 00-.07-.45 1.21 1.21 0 00-.29-.36 3.65 3.65 0 00-.43-.31l.37-.6 3.69 2.27-.37.6h-.06a2.14 2.14 0 00-.4-.2.79.79 0 00-.4-.05.86.86 0 00-.4.19 1.78 1.78 0 00-.41.49l-1.57 2.54a7.59 7.59 0 01-1.77-.41 9 9 0 01-1.74-.94M135.25 23.9a1.69 1.69 0 01.41-.37 1.07 1.07 0 01.4-.12.94.94 0 01.37.07 1.51 1.51 0 01.35.23 1.58 1.58 0 01.28.3.79.79 0 01.13.35.9.9 0 01-.05.42 1.49 1.49 0 01-.28.47 1.56 1.56 0 01-.41.35.8.8 0 01-.4.12.72.72 0 01-.38-.07 1.41 1.41 0 01-.35-.21 1.31 1.31 0 01-.27-.31.8.8 0 01-.14-.36 1 1 0 01.06-.41 1.35 1.35 0 01.28-.46M22.14 31a1.47 1.47 0 00-.53-.32.87.87 0 00-.45 0 1.19 1.19 0 00-.4.21 4.17 4.17 0 00-.37.36l-.25.28-.51-.45L23 27.31l.51.45-.25.28a2.87 2.87 0 00-.31.4 1.19 1.19 0 00-.17.41.86.86 0 00.06.44 1.27 1.27 0 00.36.45l6.74 5.92 1-1.16a1.38 1.38 0 00.31-.52 1 1 0 00.05-.48 1.23 1.23 0 00-.17-.45 3 3 0 00-.31-.42l-.46-.52.55-.63L33 33.4l-6 6.83-2.18-1.81.56-.62.57.4a3.37 3.37 0 00.45.25 1.34 1.34 0 00.47.11 1.05 1.05 0 00.48-.11 1.5 1.5 0 00.48-.39l1-1.17zM16.77 34.73l.56.39-.12.17a3.47 3.47 0 00-.26.45 1 1 0 00-.11.43.91.91 0 00.12.44 1.8 1.8 0 00.44.43l6.45 4.49a1.5 1.5 0 00.55.26.79.79 0 00.46 0 1 1 0 00.37-.25 4.69 4.69 0 00.33-.4l.12-.17.55.39-2.69 3.85-.54-.42.12-.17a3.57 3.57 0 00.27-.45 1 1 0 00.1-.43.81.81 0 00-.12-.44 1.5 1.5 0 00-.44-.43l-6.44-4.49a1.26 1.26 0 00-.56-.26.83.83 0 00-.45 0 1 1 0 00-.38.25 3.3 3.3 0 00-.32.4l-.12.17-.56-.39zM11.69 44.11l-1.49 2.73a2.07 2.07 0 00-.22.63A1.35 1.35 0 0010 48a1.4 1.4 0 00.24.45 1.67 1.67 0 00.38.37l.55.42-.4.74-2.41-1.42L12.48 41l.6.32-.1.18a4.69 4.69 0 00-.21.46 1.16 1.16 0 00-.07.44.82.82 0 00.15.41 1.35 1.35 0 00.45.37l7 3.77a1.6 1.6 0 00.58.2.79.79 0 00.44-.09 1 1 0 00.35-.29 3 3 0 00.28-.44l.05-.23.6.33-3.87 7.15-2.53-1.27.4-.74.65.26a2.42 2.42 0 00.51.14 1.34 1.34 0 00.49 0 1.2 1.2 0 00.46-.24 1.83 1.83 0 00.39-.49l1.29-2.39-3.79-2-1.82 3.35-.7-.37 1.86-3.42zM11.32 56.68l-.39 1.06a3.62 3.62 0 00-.26 1.17 1.64 1.64 0 00.19.87 1.76 1.76 0 00.6.65 4.44 4.44 0 001 .49 3.77 3.77 0 001.08.25 1.66 1.66 0 00.84-.15 1.75 1.75 0 00.66-.59 4.66 4.66 0 00.52-1l.37-1zM5.9 60.21a4.21 4.21 0 00-1.18.42 1.34 1.34 0 00-.61.73l-.64-.23.06-.13A11.24 11.24 0 014 59.81a2.77 2.77 0 01.48-.7 1.59 1.59 0 01.61-.39 4.83 4.83 0 01.91-.23l4.16-.81.46-1.26-3.15-1.14a1.25 1.25 0 00-.57-.09.78.78 0 00-.41.15 1.23 1.23 0 00-.28.35c-.07.14-.14.3-.21.47l-.07.2-.64-.24 1.61-4.41.64.23-.07.2a3.21 3.21 0 00-.14.48 1.14 1.14 0 000 .45.76.76 0 00.21.38 1.25 1.25 0 00.5.3l7.52 2.73a1.47 1.47 0 00.58.1.82.82 0 00.41-.16 1.07 1.07 0 00.29-.34 5.11 5.11 0 00.21-.47l.07-.19.63.23-1.48 4.08a5.21 5.21 0 01-1.8 2.67 2.78 2.78 0 01-2.55.16 2.75 2.75 0 01-1.6-1.39 3.19 3.19 0 01-.29-.92 6 6 0 01-.07-.92zM9.1 70.39l1.41-.19c.44 0 .86-.08 1.25-.09l-.52-.24-.52-.27-.54-.31-.63-.38-2.7-1.66-.72 3.57zm-3-3.6l-1.54-.94a2.91 2.91 0 00-.35-.18 1.82 1.82 0 00-.31-.1.7.7 0 00-.64.14 1.46 1.46 0 00-.34.76l-.07.36-.67-.13.82-3.87.66.14-.06.3a1.45 1.45 0 000 .4.68.68 0 00.13.33 1.71 1.71 0 00.33.33l.57.39 8.71 5.39-.34 1.24L2.51 73a3 3 0 00-.45.11.94.94 0 00-.31.18.66.66 0 00-.19.27 1.73 1.73 0 00-.12.4l-.05.21L.73 74l.87-4.35.67.13-.08.37c-.12.63.07 1 .57 1.1a1.27 1.27 0 00.28 0h.34l1.9-.25zM6.18 80.18v1.13a3.6 3.6 0 00.1 1.19 1.66 1.66 0 00.44.77 1.77 1.77 0 00.77.44 4.28 4.28 0 001.1.18 4 4 0 001.1-.09 1.68 1.68 0 00.76-.4 1.66 1.66 0 00.46-.76 4.48 4.48 0 00.09-1.15l.05-1.1zm-4.1 5a4 4 0 00-1 .75 1.31 1.31 0 00-.36.88H.04v-.23a11 11 0 01.11-1.23 2.56 2.56 0 01.25-.82A1.77 1.77 0 01.86 84a6.62 6.62 0 01.77-.48l3.73-2 .06-1.34L2.09 80a1.21 1.21 0 00-.57.08.67.67 0 00-.34.27 1.13 1.13 0 00-.17.42 3.61 3.61 0 00-.06.5v.21H.28l.2-4.69h.68V77a2.83 2.83 0 000 .51.94.94 0 00.12.42.8.8 0 00.32.31 1.4 1.4 0 00.56.13l8 .35a1.35 1.35 0 00.57-.08.89.89 0 00.35-.27 1.14 1.14 0 00.18-.42 4 4 0 00.05-.5v-.21h.68l-.19 4.34a5.12 5.12 0 01-.92 3.08 2.73 2.73 0 01-2.38.92 2.76 2.76 0 01-1.12-.26 2.89 2.89 0 01-.82-.58A3.65 3.65 0 016 84a6.25 6.25 0 01-.34-.87zM11.79 96.25L1.17 91.19l.4 4a1.46 1.46 0 00.17.6 1 1 0 00.32.36 1.34 1.34 0 00.44.19 4.35 4.35 0 00.52.06h.7l.08.83-2.8.26-.8-8.18.64-.06 10.64 5-.35-3.49a1.33 1.33 0 00-.16-.58 1 1 0 00-.33-.36 1.25 1.25 0 00-.44-.19 2.18 2.18 0 00-.52-.06H9l-.08-.83 2.82-.2.75 7.62zM4.5 105.32a1.39 1.39 0 00-.56.25.84.84 0 00-.28.35 1.12 1.12 0 00-.06.45 3.22 3.22 0 00.09.51l.08.36-.66.16-1.17-4.88.66-.16.08.36a2.56 2.56 0 00.16.49 1.08 1.08 0 00.24.37.7.7 0 00.38.2 1.18 1.18 0 00.58 0l8.73-2.09-.37-1.5a1.38 1.38 0 00-.24-.56 1.08 1.08 0 00-.37-.31 1.42 1.42 0 00-.47-.13 3.09 3.09 0 00-.52 0l-.69.08-.2-.81 2.77-.59 2.13 8.83-2.73.74-.2-.81.66-.24a2.28 2.28 0 00.47-.23 1.38 1.38 0 00.36-.32 1 1 0 00.18-.45 1.44 1.44 0 000-.61l-.37-1.53zM4.52 112.27l.63-.25.08.19a2.56 2.56 0 00.22.47 1.1 1.1 0 00.31.33.84.84 0 00.43.14 1.67 1.67 0 00.6-.13l7.31-2.9a1.41 1.41 0 00.52-.32.77.77 0 00.22-.39 1 1 0 000-.45 3.6 3.6 0 00-.16-.5l-.07-.19.63-.25 1.76 4.36-.63.25-.08-.19a4 4 0 00-.22-.46 1.1 1.1 0 00-.3-.34.84.84 0 00-.42-.14 1.3 1.3 0 00-.57.11l-8.32 3.3 1.17 3a1.4 1.4 0 00.35.53 1.44 1.44 0 001 .33 2.18 2.18 0 00.53-.08l1.18-.3.32.79-3.27 1.17zM9.09 123l.6-.32.09.18a3.55 3.55 0 00.28.43 1.1 1.1 0 00.35.3.77.77 0 00.44.08 1.4 1.4 0 00.58-.19l6.93-3.71a1.56 1.56 0 00.49-.37.8.8 0 00.15-.4 1 1 0 00-.05-.45c-.06-.15-.13-.31-.21-.47l-.1-.18.6-.32 2.22 4.14-.6.32-.1-.19a2.65 2.65 0 00-.28-.43 1.07 1.07 0 00-.34-.3.89.89 0 00-.44-.08 1.44 1.44 0 00-.59.19l-6.93 3.7a1.52 1.52 0 00-.48.38 1 1 0 00-.18.42 1.22 1.22 0 00.06.45 2.73 2.73 0 00.21.47l.1.18-.6.32zM25.43 127.48a6.58 6.58 0 01.7 1.27 3.28 3.28 0 01.26 1.05 1.69 1.69 0 01-.13.83 1.37 1.37 0 01-.47.57 1.07 1.07 0 01-.45.18 1 1 0 01-.46 0 1.24 1.24 0 01-.44-.23 1.93 1.93 0 01-.38-.42 2.67 2.67 0 00.56-.5 1.92 1.92 0 00.37-.65 1.69 1.69 0 00.06-.75 1.84 1.84 0 00-.35-.83 3.13 3.13 0 00-1.16-1.09 2.54 2.54 0 00-1.39-.3 4.7 4.7 0 00-1.64.41 11.72 11.72 0 00-1.88 1.08 9.37 9.37 0 00-1.52 1.27 4.38 4.38 0 00-.93 1.37 2.84 2.84 0 00-.23 1.43 3 3 0 00.57 1.45 4.33 4.33 0 00.69.8 3.65 3.65 0 00.7.48 2.91 2.91 0 00.71.26 4.36 4.36 0 00.69.09.62.62 0 01-.07.32.81.81 0 01-.27.29 1.08 1.08 0 01-.64.18 1.87 1.87 0 01-.84-.19 4 4 0 01-1-.64 6.28 6.28 0 01-1-1.19 5 5 0 01-.86-2 4.15 4.15 0 01.13-2 5.37 5.37 0 011-1.83 9.12 9.12 0 011.82-1.64 8.29 8.29 0 012.17-1.08 5.29 5.29 0 012.09-.25 4.33 4.33 0 011.92.64 5.52 5.52 0 011.64 1.6M24.48 144.48L25 144l.14.15a4.1 4.1 0 00.39.35 1.13 1.13 0 00.4.19.92.92 0 00.46 0 1.5 1.5 0 00.51-.34l2.74-2.62-3.64-3.81-2.74 2.61a1.39 1.39 0 00-.37.5.84.84 0 00.12.86 3 3 0 00.32.4l.15.15-.49.47-3.25-3.39.49-.47.14.15a4 4 0 00.39.34 1.12 1.12 0 00.41.2.89.89 0 00.45 0 1.66 1.66 0 00.51-.35l5.73-5.46a1.38 1.38 0 00.34-.48.8.8 0 000-.43 1.19 1.19 0 00-.18-.42 2.85 2.85 0 00-.33-.39l-.14-.15.49-.46 3.27 3.4-.49.47-.15-.15a3.09 3.09 0 00-.38-.35 1 1 0 00-.41-.19.79.79 0 00-.45 0 1.29 1.29 0 00-.51.34l-2.36 2.25 3.63 3.8 2.36-2.26a1.5 1.5 0 00.37-.49.91.91 0 00.08-.42 1.14 1.14 0 00-.18-.41 2.41 2.41 0 00-.33-.4l-.14-.16.49-.47 3.25 3.4-.49.47-.14-.15a4.1 4.1 0 00-.39-.35 1.17 1.17 0 00-.41-.19.79.79 0 00-.45 0 1.41 1.41 0 00-.51.34l-5.74 5.48a1.35 1.35 0 00-.34.47.75.75 0 000 .44 1 1 0 00.19.4 3.66 3.66 0 00.32.39l.15.15-.49.47zM33.44 151.4l2.49 1.88a1.87 1.87 0 00.59.31 1.26 1.26 0 00.54 0 1.43 1.43 0 00.48-.16 2.59 2.59 0 00.42-.32l.5-.49.68.51-1.79 2.18-6.92-5.21.41-.54.16.12a4.46 4.46 0 00.43.28 1.2 1.2 0 00.43.14.8.8 0 00.42-.09 1.18 1.18 0 00.43-.39l4.79-6.33a1.4 1.4 0 00.28-.54.79.79 0 000-.46 1.21 1.21 0 00-.24-.38 2.64 2.64 0 00-.39-.34l-.16-.13.41-.54 6.5 4.91-1.64 2.29-.67-.5.35-.6a1.71 1.71 0 00.21-.48 1.17 1.17 0 000-.49 1.15 1.15 0 00-.17-.49 1.52 1.52 0 00-.43-.46l-2.16-1.63-2.6 3.43 3.21 2.38-.48.63-3.11-2.34zM51.55 163l.28-.61.19.08a4.27 4.27 0 00.49.18 1.15 1.15 0 00.45 0 .86.86 0 00.4-.21 1.51 1.51 0 00.35-.51l1.54-3.45-4.8-2.14-1.54 3.46a1.26 1.26 0 00-.15.6.86.86 0 00.11.43 1.08 1.08 0 00.32.32 4 4 0 00.46.25l.19.08-.28.62-4.29-1.91.27-.62.19.09a3.58 3.58 0 00.49.17 1 1 0 00.45 0 .76.76 0 00.4-.2 1.37 1.37 0 00.34-.51l3.22-7.23a1.35 1.35 0 00.14-.57.83.83 0 00-.13-.42 1.18 1.18 0 00-.32-.31 3.21 3.21 0 00-.45-.24l-.19-.08.28-.62 4.29 1.91-.27.62-.2-.09a3.06 3.06 0 00-.48-.17 1.17 1.17 0 00-.45 0 .89.89 0 00-.41.21 1.5 1.5 0 00-.34.51l-1.33 3 4.8 2.13 1.33-3a1.55 1.55 0 00.15-.59.78.78 0 00-.12-.44 1 1 0 00-.31-.32 2.84 2.84 0 00-.46-.24l-.19-.09.27-.62 4.3 1.91-.28.62-.18-.08a3 3 0 00-.49-.18 1 1 0 00-.45 0 .79.79 0 00-.41.2 1.8 1.8 0 00-.34.51l-3.22 7.25a1.31 1.31 0 00-.14.56.83.83 0 00.13.42 1.21 1.21 0 00.33.3 3.21 3.21 0 00.45.24l.19.08-.28.62zM62.61 160.93a11.3 11.3 0 00-.34 2.12 4.65 4.65 0 00.17 1.68 2.65 2.65 0 00.75 1.21 3.09 3.09 0 001.4.71 3.19 3.19 0 001.56 0 2.74 2.74 0 001.23-.71 4.67 4.67 0 00.93-1.41 11.19 11.19 0 00.69-2 12.28 12.28 0 00.35-2.12 4.67 4.67 0 00-.16-1.68 2.74 2.74 0 00-.74-1.2 3.2 3.2 0 00-1.39-.7 3.37 3.37 0 00-1.57 0 2.72 2.72 0 00-1.24.71 4.51 4.51 0 00-.94 1.4 12 12 0 00-.7 2m8.13 2a8.48 8.48 0 01-.91 2.27 5.2 5.2 0 01-1.41 1.59 4.32 4.32 0 01-1.84.78 5.42 5.42 0 01-2.21-.11 5.51 5.51 0 01-2.07-1 4.12 4.12 0 01-1.24-1.47 5.19 5.19 0 01-.47-2 9 9 0 01.29-2.45 8.68 8.68 0 01.9-2.28 5.17 5.17 0 011.37-1.58 4.28 4.28 0 011.83-.77 5.51 5.51 0 012.29.14 5 5 0 012 .93 4.32 4.32 0 011.25 1.54 5.2 5.2 0 01.5 2 8.25 8.25 0 01-.27 2.45M79.34 158a7 7 0 011.42.28 3.73 3.73 0 011 .49 1.75 1.75 0 01.54.63 1.32 1.32 0 01.13.73 1.09 1.09 0 01-.15.46 1 1 0 01-.34.32 1.17 1.17 0 01-.46.18 1.74 1.74 0 01-.56 0 3.14 3.14 0 000-.75 2.11 2.11 0 00-.26-.7 1.68 1.68 0 00-.53-.53 2 2 0 00-.87-.28 3.34 3.34 0 00-1.58.18 2.7 2.7 0 00-1.13.86 4.59 4.59 0 00-.74 1.52 10.78 10.78 0 00-.4 2.13 9.42 9.42 0 000 2 4.63 4.63 0 00.44 1.59 3 3 0 00.94 1.1 3.07 3.07 0 001.49.51 4.05 4.05 0 001 0 3.36 3.36 0 00.83-.22 2.75 2.75 0 00.65-.37 4.69 4.69 0 00.52-.47.7.7 0 01.19.26.73.73 0 01.05.4 1.12 1.12 0 01-.27.6 1.88 1.88 0 01-.69.51 3.92 3.92 0 01-1.12.32 6.27 6.27 0 01-1.57 0 4.81 4.81 0 01-2.06-.64 4.14 4.14 0 01-1.41-1.35 5.41 5.41 0 01-.74-2 9 9 0 01-.07-2.45 8.1 8.1 0 01.58-2.35 5.17 5.17 0 011.17-1.75 4.43 4.43 0 011.73-1 5.44 5.44 0 012.28-.2M91.59 169.64v-.68h.22a3.92 3.92 0 00.51-.07 1.11 1.11 0 00.41-.19.85.85 0 00.26-.37 1.57 1.57 0 00.07-.61l-.24-3.77-5.25.33.24 3.77a1.55 1.55 0 00.15.6.81.81 0 00.3.33 1.21 1.21 0 00.43.14h.73v.68l-4.69.29v-.68h.2a2.72 2.72 0 00.52-.07 1.18 1.18 0 00.41-.19.85.85 0 00.26-.37 1.4 1.4 0 00.06-.61l-.5-7.89a1.21 1.21 0 00-.14-.56.8.8 0 00-.31-.32 1.14 1.14 0 00-.43-.13 4.34 4.34 0 00-.51 0H84l-.05-.67 4.7-.3v.68h-.21a3.92 3.92 0 00-.44.02 1 1 0 00-.41.19.87.87 0 00-.27.37 1.4 1.4 0 00-.06.61l.2 3.25 5.25-.33-.21-3.25a1.4 1.4 0 00-.14-.6.83.83 0 00-.31-.33 1 1 0 00-.43-.14 2.89 2.89 0 00-.51 0h-.21v-.68l4.69-.29v.67h-.21a2.73 2.73 0 00-.51.07.92.92 0 00-.41.19.73.73 0 00-.26.36 1.6 1.6 0 00-.07.62l.5 7.91a1.39 1.39 0 00.14.56.84.84 0 00.31.31 1.43 1.43 0 00.43.12h.72v.67zM102.77 168.19a5.07 5.07 0 01-1.4.13 3.19 3.19 0 01-1.09-.23 1.92 1.92 0 01-1.14-1.44 1.07 1.07 0 01.12-.83 1.2 1.2 0 01.79-.48 4.07 4.07 0 00.35.92 2.68 2.68 0 00.56.72 2 2 0 00.77.41 2.06 2.06 0 001 0 2.49 2.49 0 001.55-.87 1.87 1.87 0 00.28-1.61 2.19 2.19 0 00-.29-.73 1.82 1.82 0 00-.54-.53 3.55 3.55 0 00-.87-.37 10.84 10.84 0 00-1.28-.29 9.12 9.12 0 01-1.42-.37 3.92 3.92 0 01-1.08-.56 2.89 2.89 0 01-.74-.82 3.37 3.37 0 01-.43-1.13 2.82 2.82 0 010-1.26 2.61 2.61 0 01.53-1 3.2 3.2 0 011-.8 5 5 0 011.34-.49 4.63 4.63 0 011.29-.13 3.3 3.3 0 011 .19 2 2 0 01.7.44 1.3 1.3 0 01.34.63.9.9 0 01-.17.84 1.45 1.45 0 01-.85.45 3.13 3.13 0 00-.24-.71 2.07 2.07 0 00-.44-.57 1.62 1.62 0 00-.65-.34 1.86 1.86 0 00-.88 0 2.5 2.5 0 00-.78.31 1.57 1.57 0 00-.53.49 1.62 1.62 0 00-.26.65 2 2 0 000 .77 2.52 2.52 0 00.31.8 1.73 1.73 0 00.55.56 3.81 3.81 0 00.88.38 11.29 11.29 0 001.27.28 10.61 10.61 0 011.37.33 4.5 4.5 0 011.08.51 2.66 2.66 0 011.2 1.79 3.16 3.16 0 010 1.4 2.79 2.79 0 01-.56 1.16 3.64 3.64 0 01-1.1.89 5.88 5.88 0 01-1.55.56M110.84 153.53a7 7 0 011.4-.35 3.28 3.28 0 011.09 0 1.72 1.72 0 01.76.34 1.31 1.31 0 01.44.6 1 1 0 01.06.48 1.17 1.17 0 01-.16.44 1.48 1.48 0 01-.35.36 2.27 2.27 0 01-.49.26 2.85 2.85 0 00-.35-.67 2 2 0 00-.53-.52 1.72 1.72 0 00-.71-.25 1.84 1.84 0 00-.9.12 3.39 3.39 0 00-1.35.84 2.66 2.66 0 00-.65 1.27 4.54 4.54 0 000 1.69 11 11 0 00.55 2.09 10 10 0 00.85 1.8 4.6 4.6 0 001.09 1.24 2.92 2.92 0 001.32.59 3.1 3.1 0 001.56-.18 4.84 4.84 0 00.94-.46 3.33 3.33 0 00.65-.56 2.76 2.76 0 00.43-.62 4.37 4.37 0 00.27-.64.62.62 0 01.29.15.71.71 0 01.21.34 1.12 1.12 0 010 .66 2.08 2.08 0 01-.4.76 4.07 4.07 0 01-.88.77 6.3 6.3 0 01-1.4.68 5.06 5.06 0 01-2.15.32 4.19 4.19 0 01-1.85-.62 5.3 5.3 0 01-1.51-1.45 8.59 8.59 0 01-1.12-2.18 8.12 8.12 0 01-.5-2.36 5.25 5.25 0 01.29-2.09 4.51 4.51 0 011.12-1.69 5.52 5.52 0 012-1.17M126.87 158.89l-.32-.59.19-.1a3.58 3.58 0 00.43-.29 1 1 0 00.29-.34.91.91 0 00.08-.44 1.47 1.47 0 00-.2-.59l-1.83-3.31-4.6 2.53 1.82 3.31a1.4 1.4 0 00.39.48.77.77 0 00.42.17.86.86 0 00.44-.06 2.18 2.18 0 00.47-.21l.19-.1.33.59-4.13 2.26-.32-.59.18-.1a3.55 3.55 0 00.43-.28 1 1 0 00.29-.35.71.71 0 00.08-.44 1.43 1.43 0 00-.2-.58l-3.82-6.93a1.24 1.24 0 00-.37-.45.84.84 0 00-.41-.16 1 1 0 00-.45.07 3.81 3.81 0 00-.46.22l-.18.09-.33-.59 4.12-2.26.33.59-.18.1a3.55 3.55 0 00-.43.28 1.08 1.08 0 00-.3.35.91.91 0 00-.08.44 1.52 1.52 0 00.2.59l1.58 2.85 4.6-2.53-1.57-2.85a1.4 1.4 0 00-.39-.48.77.77 0 00-.42-.17.86.86 0 00-.44.06 2.73 2.73 0 00-.47.21l-.19.1-.33-.59 4.13-2.27.32.6-.18.1a3.55 3.55 0 00-.43.28 1 1 0 00-.29.35.7.7 0 00-.08.44 1.43 1.43 0 00.2.58l3.83 7a1.31 1.31 0 00.37.45.7.7 0 00.41.14 1.19 1.19 0 00.44-.07 3.81 3.81 0 00.46-.22l.18-.09.33.59zM138 151.54a6.79 6.79 0 01-1.46.91 3.32 3.32 0 01-1.41.3 2.76 2.76 0 01-1.33-.39 4.37 4.37 0 01-1.26-1.14l-3.9-4.9a1.47 1.47 0 00-.44-.38.77.77 0 00-.44-.08 1 1 0 00-.42.14 3.52 3.52 0 00-.42.29l-.17.12-.42-.53 3.68-2.92.43.53-.17.13a3.22 3.22 0 00-.38.35 1.06 1.06 0 00-.23.39.86.86 0 000 .45 1.44 1.44 0 00.29.54l3.93 4.93a3 3 0 00.9.81 2.12 2.12 0 00.94.28 2.29 2.29 0 001-.18 4.23 4.23 0 00.94-.56 3.62 3.62 0 00.83-.9 2.53 2.53 0 00.33-.94 2 2 0 00-.11-.93 2.74 2.74 0 00-.5-.89l-4-5a1.17 1.17 0 00-.44-.38.74.74 0 00-.43-.08 1 1 0 00-.43.14 2.64 2.64 0 00-.42.29l-.16.12-.42-.53 3.17-2.52.43.53-.17.13a4.38 4.38 0 00-.38.35 1.14 1.14 0 00-.23.39.86.86 0 000 .45 1.44 1.44 0 00.29.54l4 5a3.9 3.9 0 01.7 1.29 3 3 0 01.09 1.32 3.44 3.44 0 01-.55 1.31 5.73 5.73 0 01-1.19 1.24M144.24 146l-.5-.46.14-.15a2.91 2.91 0 00.33-.4 1 1 0 00.16-.42.72.72 0 00-.06-.45 1.5 1.5 0 00-.37-.49l-5.76-5.34a1.39 1.39 0 00-.52-.34.71.71 0 00-.45 0 1.05 1.05 0 00-.4.19 3.2 3.2 0 00-.39.36l-.14.15-.49-.47 3.2-3.44.5.47-.15.15c-.12.13-.22.27-.32.4a1 1 0 00-.17.41.76.76 0 00.05.44 1.35 1.35 0 00.34.47l6.57 6.09 2.17-2.33a1.57 1.57 0 00.33-.54 1.25 1.25 0 000-.54 1.52 1.52 0 00-.16-.51 2.83 2.83 0 00-.3-.44l-.78-.94.58-.62 2.46 2.45zM153.32 134.18l1.78-2.56a1.65 1.65 0 00.29-.6 1.2 1.2 0 000-.53 1.24 1.24 0 00-.19-.48 2.06 2.06 0 00-.33-.4l-.51-.49.49-.69 2.25 1.7-5 7.1-.56-.39.12-.17a3.37 3.37 0 00.26-.44 1.11 1.11 0 00.12-.43.73.73 0 00-.1-.42 1.22 1.22 0 00-.41-.41l-6.51-4.54a1.5 1.5 0 00-.56-.27.76.76 0 00-.45 0 1 1 0 00-.37.25 4.69 4.69 0 00-.33.4l-.12.17-.55-.39 4.66-6.67 2.36 1.55-.48.69-.61-.33a1.84 1.84 0 00-.49-.19 1 1 0 00-.49 0 1.08 1.08 0 00-.48.18 1.6 1.6 0 00-.45.45l-1.55 2.22 3.53 2.46 2.23-3.19.65.45-2.24 3.19zM164.22 115.79l-.63-.26.08-.19a4.08 4.08 0 00.16-.5 1 1 0 000-.45 1 1 0 00-.22-.39 1.61 1.61 0 00-.53-.33l-3.51-1.41-2 4.87 3.52 1.41a1.33 1.33 0 00.6.13.84.84 0 00.43-.13 1 1 0 00.31-.33 3.29 3.29 0 00.23-.46l.08-.2.63.25-1.76 4.36-.63-.25.08-.19a4 4 0 00.16-.49 1.19 1.19 0 000-.46.77.77 0 00-.22-.39 1.41 1.41 0 00-.52-.32l-7.36-3a1.46 1.46 0 00-.57-.11.84.84 0 00-.42.14 1.21 1.21 0 00-.3.33 4.91 4.91 0 00-.22.46l-.08.19-.63-.25 1.76-4.36.63.25-.08.2a3.4 3.4 0 00-.15.49 1 1 0 000 .45.8.8 0 00.22.4 1.41 1.41 0 00.52.32l3 1.22 2-4.87-3-1.22a1.52 1.52 0 00-.61-.12.75.75 0 00-.43.13 1.18 1.18 0 00-.31.32 4.12 4.12 0 00-.23.47l-.07.2-.63-.26 1.75-4.36.63.26-.08.19a3.4 3.4 0 00-.15.49 1 1 0 000 .45.76.76 0 00.22.4 1.46 1.46 0 00.53.32l7.37 3a1.13 1.13 0 00.57.11.8.8 0 00.41-.14 1.09 1.09 0 00.29-.34 2.8 2.8 0 00.22-.46l.08-.19.63.26zM160.77 101.16l-1.41.17c-.44 0-.86.07-1.26.08a4.12 4.12 0 01.52.24l.51.28c.18.1.36.2.54.32l.63.39 2.67 1.7.78-3.55zm2.93 3.66l1.52 1 .35.19a1.5 1.5 0 00.3.1.66.66 0 00.64-.13 1.38 1.38 0 00.36-.75l.08-.36.66.15-.84 3.85-.66-.15.06-.3a1.18 1.18 0 000-.4.73.73 0 00-.12-.34 2.55 2.55 0 00-.33-.33c-.14-.11-.33-.25-.56-.4l-8.61-5.54.27-1.23 10.55-1.44a1.76 1.76 0 00.45-.1.74.74 0 00.3-.17.71.71 0 00.21-.27 1.5 1.5 0 00.12-.39v-.21l.66.15-.95 4.33-.66-.14.08-.36c.14-.64 0-1-.55-1.12H166.42l-1.91.24zM170 86.55l-9.62 5.55 7.46.39a1.38 1.38 0 00.61-.07.8.8 0 00.37-.27.9.9 0 00.18-.41 2.73 2.73 0 00.07-.51V91h.68l-.21 4h-.68v-.21a4.42 4.42 0 000-.52 1.21 1.21 0 00-.14-.43.91.91 0 00-.34-.3 1.57 1.57 0 00-.6-.13l-7.92-.42a1.23 1.23 0 00-.57.08.74.74 0 00-.35.27.9.9 0 00-.18.41 4 4 0 00-.06.5v.21h-.68l.16-2.95 9.23-5.3-7.15-.37a1.27 1.27 0 00-.58.07.74.74 0 00-.35.27 1 1 0 00-.18.41 4 4 0 00-.06.51v.21h-.68l.22-4h.67v.2a4.42 4.42 0 000 .52 1.21 1.21 0 00.14.43.91.91 0 00.34.3 1.41 1.41 0 00.6.13l9.69.52zM169 72.16l-8.55 7.1 7.43-.88a1.29 1.29 0 00.59-.17.86.86 0 00.31-.32 1.07 1.07 0 00.12-.44 4.61 4.61 0 000-.52v-.21l.67-.08.48 4-.68.08v-.21a2.71 2.71 0 00-.1-.51.92.92 0 00-.21-.39.73.73 0 00-.38-.25 1.52 1.52 0 00-.62 0l-7.87.93a1.2 1.2 0 00-.56.17.91.91 0 00-.3.32 1.23 1.23 0 00-.1.44 4.52 4.52 0 000 .51v.2l-.68.08-.34-2.93 8.2-6.78-7.11.83a1.48 1.48 0 00-.56.17.94.94 0 00-.3.33 1 1 0 00-.1.44 2.83 2.83 0 000 .5v.22l-.68.07-.47-4 .67-.08v.21a2.46 2.46 0 00.1.5.9.9 0 00.21.4.78.78 0 00.38.24 1.64 1.64 0 00.61 0l9.72-1.13zM161.9 66a11.27 11.27 0 002-.77 4.71 4.71 0 001.36-1 2.59 2.59 0 00.67-1.26 3.15 3.15 0 00-.1-1.56 3.19 3.19 0 00-.76-1.36 2.68 2.68 0 00-1.24-.7 5.12 5.12 0 00-1.69-.09 11.89 11.89 0 00-2.11.44 11.45 11.45 0 00-2 .77 4.79 4.79 0 00-1.37 1 2.63 2.63 0 00-.66 1.24 3.56 3.56 0 00.86 2.92 2.7 2.7 0 001.24.71 4.78 4.78 0 001.68.11 11.89 11.89 0 002.12-.45m-2.36-8a8.21 8.21 0 012.42-.36A5.32 5.32 0 01164 58a4.48 4.48 0 011.61 1.19 5.29 5.29 0 011 2 5.37 5.37 0 01.22 2.27 4.14 4.14 0 01-.71 1.85 5.22 5.22 0 01-1.54 1.44 8.6 8.6 0 01-2.25 1 9.15 9.15 0 01-2.42.39 5.22 5.22 0 01-2.06-.39 4.1 4.1 0 01-1.6-1.19 5.48 5.48 0 01-1-2 5.1 5.1 0 01-.2-2.19 4.26 4.26 0 01.7-1.86 5.19 5.19 0 011.54-1.51 8.33 8.33 0 012.25-1M162.16 49.64L154.59 57a2 2 0 00-.29.35.78.78 0 00-.14.33.74.74 0 000 .33 1.85 1.85 0 00.14.39l.09.19-.61.29-1.9-4 .62-.29.16.33a1.1 1.1 0 00.47.58.67.67 0 00.64 0 1.14 1.14 0 00.23-.15 2.32 2.32 0 00.25-.22l4-3.84c.36-.35.72-.67 1.08-1s.69-.57 1-.81c-.39.09-.81.17-1.25.25s-.94.15-1.47.21l-5.41.57-.38.07a1.25 1.25 0 00-.31.1.67.67 0 00-.43.49 1.37 1.37 0 00.17.8l.16.34-.61.29-1.68-3.56.62-.29.13.28a1.62 1.62 0 00.21.35.79.79 0 00.3.2 1.86 1.86 0 00.46.07 6.58 6.58 0 00.68 0l10.12-1.06zM155.93 39.93l-1.72-2.6a2 2 0 00-.45-.49 1.52 1.52 0 00-.49-.22 1.46 1.46 0 00-.51 0 2.5 2.5 0 00-.51.16l-.64.29-.46-.7 2.42-1.46 4.77 7.21-.56.38-.12-.17a2.59 2.59 0 00-.31-.41 1 1 0 00-.35-.27.77.77 0 00-.43-.06 1.35 1.35 0 00-.54.23l-6.62 4.37a1.54 1.54 0 00-.45.42.78.78 0 00-.14.43 1 1 0 00.1.44 2.53 2.53 0 00.25.45l.11.17-.56.38-4.49-6.79 2.31-1.62.46.7-.54.45a2.11 2.11 0 00-.35.38 1.32 1.32 0 00-.21.45 1.24 1.24 0 000 .51 1.71 1.71 0 00.26.58l1.49 2.26 3.58-2.4-2.15-3.25.66-.43 2.15 3.24zM145.21 33.91l-.76-.85a3.84 3.84 0 00-.9-.78 1.8 1.8 0 00-.86-.25 1.86 1.86 0 00-.86.22 4.63 4.63 0 00-.91.64 3.8 3.8 0 00-.73.83 1.63 1.63 0 00-.27.82 1.82 1.82 0 00.2.85 4.29 4.29 0 00.68 1l.73.82zm-.54-6.43a4.21 4.21 0 00.2-1.24 1.36 1.36 0 00-.36-.89l.51-.45.15.17c.34.38.6.7.79 1a2.84 2.84 0 01.38.76 1.8 1.8 0 01.06.73 7.7 7.7 0 01-.21.88l-1.28 4 .89 1 2.5-2.2a1.37 1.37 0 00.35-.46.83.83 0 00.06-.43 1.48 1.48 0 00-.17-.42c-.09-.13-.2-.27-.31-.4l-.15-.16.51-.45 3.12 3.51-.51.45-.2-.18a4.17 4.17 0 00-.37-.36 1.06 1.06 0 00-.39-.21.63.63 0 00-.43 0 1.23 1.23 0 00-.5.3l-6 5.3a1.21 1.21 0 00-.36.46.82.82 0 00-.06.43 1 1 0 00.17.42 3.68 3.68 0 00.31.41l.13.15-.5.45-2.89-3.25a5.19 5.19 0 01-1.44-2.8 2.73 2.73 0 011.07-2.32 2.8 2.8 0 012-.74 3.08 3.08 0 01.95.18 5.1 5.1 0 01.85.39zM11.32 74.84a1.32 1.32 0 01-.43-.18.92.92 0 01-.23-.26.68.68 0 01-.07-.32 1 1 0 01.05-.34 1.07 1.07 0 01.13-.31.61.61 0 01.23-.23.76.76 0 01.34-.11 1.61 1.61 0 01.46 0 1.43 1.43 0 01.41.19.87.87 0 01.24.27.79.79 0 01.08.31 1.33 1.33 0 010 .34 1.15 1.15 0 01-.14.32.72.72 0 01-.23.23.8.8 0 01-.33.1 1.27 1.27 0 01-.45-.06M13 68.18a1.4 1.4 0 01-.44-.16.66.66 0 01-.26-.23.71.71 0 01-.1-.31 1.42 1.42 0 010-.35 1.21 1.21 0 01.11-.32.69.69 0 01.2-.25.77.77 0 01.32-.13 1.25 1.25 0 01.47 0 1.44 1.44 0 01.43.15.75.75 0 01.25.25.64.64 0 01.11.3 1.3 1.3 0 010 .34 1.17 1.17 0 01-.11.33.72.72 0 01-.21.25.77.77 0 01-.32.13 1.38 1.38 0 01-.45 0" class="cls-14" transform="translate(-.03 -.02)"/>
        <path d="M59.12 131.12v-.48h.76a2 2 0 00.36 0 .72.72 0 00.3-.11.63.63 0 00.2-.25 1 1 0 00.07-.42v-6c-.14.18-.28.34-.41.48a4.51 4.51 0 01-.37.38 1.82 1.82 0 01-.35.24.8.8 0 01-.33.08.5.5 0 01-.41-.17.6.6 0 01-.17-.44 2 2 0 00.35-.11 2.3 2.3 0 00.37-.16 3.94 3.94 0 00.43-.25l.51-.35.8-.59H62v6.85a1.24 1.24 0 00.07.43.63.63 0 00.2.25.77.77 0 00.3.11 2.13 2.13 0 00.37 0h.55v.48zM66.43 131.12l2.68-7.19h-3a.58.58 0 00-.66.58v.56h-.47v-2h5.09v.33l-2.8 7.77zM102.62 131.12l2.69-7.19h-3a.58.58 0 00-.66.58v.56h-.47v-2h5.09v.33l-2.8 7.77zM111.18 124.83a1.68 1.68 0 00-.07-.5 1.4 1.4 0 00-.22-.44 1.13 1.13 0 00-.4-.31 1.41 1.41 0 00-.61-.12 1.6 1.6 0 00-.56.1 1.15 1.15 0 00-.42.28 1.27 1.27 0 00-.25.42 1.61 1.61 0 00-.08.54 1.3 1.3 0 00.38 1 2.31 2.31 0 00.48.36 6.84 6.84 0 00.67.35 3.52 3.52 0 00.53-.32 1.42 1.42 0 00.33-.37 1.3 1.3 0 00.17-.44 2.73 2.73 0 00.05-.53m-1.31 5.83a1.78 1.78 0 00.67-.11 1.41 1.41 0 00.52-.31 1.43 1.43 0 00.33-.47 1.54 1.54 0 00.12-.61 1.36 1.36 0 00-.11-.53 1.43 1.43 0 00-.34-.47 3.69 3.69 0 00-.62-.45 8.18 8.18 0 00-.93-.45 2.37 2.37 0 00-.85.74 1.83 1.83 0 00-.32 1.1 1.87 1.87 0 00.1.64 1.39 1.39 0 00.28.49 1.23 1.23 0 00.48.32 1.78 1.78 0 00.67.11m-2.64-1.59a2 2 0 01.13-.72 1.72 1.72 0 01.37-.55 2.72 2.72 0 01.55-.44 7.37 7.37 0 01.72-.38 4.47 4.47 0 01-.6-.4 2.57 2.57 0 01-.47-.46 2.32 2.32 0 01-.3-.56 2 2 0 01-.11-.65 2.22 2.22 0 01.14-.76 1.84 1.84 0 01.44-.64 2 2 0 01.76-.45 3.14 3.14 0 011.12-.17 3 3 0 011 .14 2.07 2.07 0 01.71.41 1.74 1.74 0 01.43.61 2 2 0 01.15.78 1.8 1.8 0 01-.11.65 1.66 1.66 0 01-.31.51 2.37 2.37 0 01-.48.4 6.15 6.15 0 01-.63.35 6.2 6.2 0 01.77.43 3.27 3.27 0 01.59.49 2.11 2.11 0 01.39.58 1.74 1.74 0 01.14.69 2.34 2.34 0 01-.2 1 2 2 0 01-.55.72 2.59 2.59 0 01-.86.45 3.91 3.91 0 01-1.13.15 3.51 3.51 0 01-1.12-.17 2.16 2.16 0 01-.8-.46 1.82 1.82 0 01-.49-.68 2.22 2.22 0 01-.17-.85" class="cls-3" transform="translate(-.03 -.02)"/>
    </g>

</svg>